<svg width="32" height="32" viewBox="0 0 32 32" fill="none" xmlns="http://www.w3.org/2000/svg">
  <defs>
    <linearGradient id="gradient" x1="0%" y1="0%" x2="100%" y2="100%">
      <stop offset="0%" style="stop-color:#d75c4f;stop-opacity:1" />
      <stop offset="100%" style="stop-color:#c04c3f;stop-opacity:1" />
    </linearGradient>
  </defs>
  
  <!-- Background circle -->
  <circle cx="16" cy="16" r="15" fill="url(#gradient)" stroke="#fff" stroke-width="2"/>
  
  <!-- Payment card icon -->
  <rect x="7" y="11" width="18" height="11" rx="2" fill="white" opacity="0.9"/>
  <rect x="7" y="13" width="18" height="2" fill="url(#gradient)"/>
  
  <!-- Dollar sign -->
  <path d="M15 8 L15 6 M17 8 L17 6 M15 24 L15 26 M17 24 L17 26" stroke="white" stroke-width="1.5" stroke-linecap="round"/>
  <path d="M12 10 C12 8.5 13.5 7 16 7 C18.5 7 20 8.5 20 10 C20 11 19 11.5 16 12 C13 12.5 12 13 12 14 C12 15.5 13.5 17 16 17 C18.5 17 20 15.5 20 14" stroke="white" stroke-width="1.5" stroke-linecap="round" fill="none"/>
</svg>